<?xml version="1.0" encoding="utf-8"?>
<svg xmlns="http://www.w3.org/2000/svg" viewBox="0.45 0.06 49.761 47.4821" width="49.761px" height="47.4821px">
  <path d="M15.4 39.33a2.1 2.1 0 0 1-.77-2.35l.44-1.82c.16-.65.58-1.2 1.17-1.51l1.45-.76a4.5 4.5 0 0 0 2.32-5.03l-.02-.1a4.57 4.57 0 0 0-1.86-2.68 4.6 4.6 0 0 0-3.2-.72l-1.62.23c-.67.1-1.35-.09-1.86-.54l-1.43-1.2a2.2 2.2 0 0 1-.76-1.05 2.17 2.17 0 0 1 0-1.3 4.49 4.49 0 0 0-4.56-5.91A4.54 4.54 0 0 0 .45 19.1a4.54 4.54 0 0 0 5.6 4.39l.43-.08a2.3 2.3 0 0 1 1.99.51l1.94 1.68c.6.53.9 1.33.79 2.12l-.05.3-.05.26v.02c-.06.57-.02 1.15.13 1.7v.03c.19.72.55 1.37 1.05 1.91.07.07.12.13.19.18l.21.21c.28.3.48.64.6 1.02.1.38.1.8.01 1.18L12.7 37c-.07.35-.23.67-.46.94-.22.28-.5.5-.83.64l-.37.18c-.85.33-1.58.91-2.08 1.67a4.5 4.5 0 0 0 4.52 7.03 4.62 4.62 0 0 0 3.78-4.2l.05-.4a4.56 4.56 0 0 0-1.9-3.54l-.01.01Z" style="fill:#c8c9ca;fill-rule:nonzero" transform="matrix(0.9999999999999999, 0, 0, 0.9999999999999999, 0, 0)"/>
  <path d="M50.02 17.71a4.56 4.56 0 0 0-7.8-1.51l-.28.29a2.3 2.3 0 0 1-1.9.76l-2.57-.22a2.34 2.34 0 0 1-1.89-1.26l-.13-.27a2.72 2.72 0 0 0-.13-.23v-.02a4.4 4.4 0 0 0-1.03-1.24l-.07-.06-.03-.03a4.49 4.49 0 0 0-1.98-.92h-.02l-.26-.05-.3-.02a2.37 2.37 0 0 1-1.79-1.4l-.99-2.35a2.31 2.31 0 0 1 .12-2.05l.2-.34c.45-.72.7-1.55.7-2.4A4.56 4.56 0 0 0 25.33.06 4.56 4.56 0 0 0 20.8 4.4c0 .85.24 1.68.7 2.4l.18.34c.36.63.4 1.39.12 2.05l-.98 2.34a2.34 2.34 0 0 1-1.78 1.4l-.3.06-.25.03h-.03c-.54.11-1.04.32-1.5.6l-.07.05c-.64.4-1.17.97-1.54 1.63v.01l-.11.23c-1.84 3.93 2.18 6.12 2.68 6.25 1.26.4 2.62.24 3.76-.43l.08-.05a4.52 4.52 0 0 0 1.66-5.86l-.74-1.47c-.3-.6-.32-1.3-.07-1.92l.7-1.73a2.1 2.1 0 0 1 2.01-1.44c.9 0 1.72.58 2.01 1.44l.7 1.73c.13.3.2.63.18.96 0 .34-.08.66-.24.96l-.72 1.47a4.51 4.51 0 0 0 1.11 5.43l.07.07a4.48 4.48 0 0 0 6.1-.24l1.17-1.14a2.3 2.3 0 0 1 1.82-.67l1.87.14c.91 0 1.72.6 2 1.46.29.87 1.01 2.56 3.65 3.07A4.56 4.56 0 0 0 50 17.68l.02.03Z" style="fill:#ec1d35;fill-rule:nonzero" transform="matrix(0.9999999999999999, 0, 0, 0.9999999999999999, 0, 0)"/>
  <path d="M33.66 24.54a4.7 4.7 0 0 0-2.78 2.54c0 .03-.03.06-.04.1a4.52 4.52 0 0 0 2.12 5.7l1.45.76c.29.15.55.37.76.63.2.26.34.56.43.89l.44 1.82c.13.42.13.87 0 1.29-.3.86-1.1 1.44-2 1.45-.45 0-.88-.14-1.25-.4l-1.6-.98a2.32 2.32 0 0 1-1.08-1.58l-.28-1.61c-.17-1-.66-1.9-1.4-2.59a4.59 4.59 0 0 0-2.7-1.17h-.1a4.56 4.56 0 0 0-4.79 3.77c-.64 3.82 2.8 5.07 4.15 5.23h.12a4.5 4.5 0 0 0 2.14-.4h.03l.24-.11.26-.14a2.34 2.34 0 0 1 2.29.09l2.19 1.34c.6.38 1.01 1.01 1.1 1.72l.05.4c0 .15.03.32.05.47a4.52 4.52 0 1 0 6.16-4.97l-.37-.16c-.65-.3-1.13-.9-1.3-1.59l-.6-2.49a2.4 2.4 0 0 1 .64-2.18l.2-.22c.06-.05.13-.11.18-.18v-.02c.38-.4.67-.86.87-1.36l.03-.07v-.04c.27-.7.37-1.44.28-2.16v-.03c-.6-4.38-4.92-4.12-5.9-3.75h.01Z" style="fill:#402fff;fill-rule:nonzero" transform="matrix(0.9999999999999999, 0, 0, 0.9999999999999999, 0, 0)"/>
</svg>